<?xml version="1.0" standalone="no"?><!DOCTYPE svg PUBLIC "-//W3C//DTD SVG 1.1//EN" "http://www.w3.org/Graphics/SVG/1.1/DTD/svg11.dtd"><svg t="1700121367434" class="icon" viewBox="0 0 1024 1024" version="1.1" xmlns="http://www.w3.org/2000/svg" p-id="4030" xmlns:xlink="http://www.w3.org/1999/xlink" width="32" height="32"><path d="M922.112 800.597333l-127.146667-127.146666c14.506667-21.333333 26.965333-44.032 37.034667-67.925334 7.338667-17.408 13.482667-35.669333 18.090667-54.101333 8.021333-31.573333 11.946667-64.170667 11.946666-96.938667C861.184 240.64 686.592 65.877333 472.746667 65.194667h-1.365334c-103.253333 0-200.021333 40.106667-272.896 112.810666C125.44 251.050667 85.333333 348.501333 85.674667 452.266667c0.682667 213.845333 175.445333 388.437333 389.290666 389.290666h1.365334c51.2 0 101.034667-9.898667 147.968-29.354666 17.408-7.168 25.6-27.136 18.432-44.544a33.9456 33.9456 0 0 0-44.544-18.432c-38.912 16.213333-79.872 24.917333-123.050667 24.064-176.469333-0.682667-320.512-144.725333-321.194667-321.365334-0.341333-85.333333 32.597333-165.546667 92.842667-225.621333 59.904-59.904 139.605333-92.842667 224.597333-92.842667h1.194667c176.469333 0.682667 320.682667 144.725333 321.194667 321.194667 0 27.136-3.242667 53.930667-9.728 79.872-3.925333 15.189333-8.874667 30.037333-14.848 44.544-11.093333 26.624-25.941333 51.541333-43.861334 74.069333-0.512 0.512-1.194667 1.194667-1.706666 1.877334-11.093333 13.482667-10.069333 33.450667 2.218666 45.738666l148.138667 147.968c6.656 6.656 15.36 10.069333 24.064 10.069334s17.408-3.413333 24.064-10.069334c13.312-13.312 13.312-34.816 0-48.128z" fill="#3f72af" p-id="4031"></path></svg>